<svg width="24" height="24" viewBox="0 0 24 24" fill="none" xmlns="http://www.w3.org/2000/svg">
<rect width="24" height="24" rx="12" fill="#EBEBEB"/>
<path d="M15.4285 16C15.2571 16 15.1428 15.9428 15.0285 15.8285L12 12.8L8.97145 15.8285C8.74285 16.0571 8.4 16.0571 8.17145 15.8285C7.94285 15.6 7.94285 15.2572 8.17145 15.0286L11.2 12L8.17145 8.97141C7.94285 8.74286 7.94285 8.40001 8.17145 8.17141C8.4 7.94286 8.74285 7.94286 8.97145 8.17141L12 11.2L15.0285 8.17141C15.2571 7.94286 15.6 7.94286 15.8285 8.17141C16.0571 8.40001 16.0571 8.74286 15.8285 8.97141L12.8 12L15.8285 15.0286C16.0571 15.2572 16.0571 15.6 15.8285 15.8285C15.7143 15.9428 15.6 16 15.4285 16Z" fill="black" stroke="black" stroke-width="0.3"/>
</svg>
