<svg width="18" height="23" viewBox="0 0 18 23" fill="none" xmlns="http://www.w3.org/2000/svg">
<g id="Group 62796936">
<g id="Group 62796933">
<mask id="mask0_564_1500" style="mask-type:alpha" maskUnits="userSpaceOnUse" x="0" y="0" width="18" height="23">
<path id="Subtract" fill-rule="evenodd" clip-rule="evenodd" d="M8.7027 23C11.8108 21.1351 17.4054 13.5091 17.4054 8.7027C17.4054 3.89633 13.5091 0 8.7027 0C3.89633 0 0 3.89633 0 8.7027C0 13.5091 5.59459 21.1351 8.7027 23ZM8.70316 13.0542C11.1063 13.0542 13.0545 11.106 13.0545 8.70281C13.0545 6.29962 11.1063 4.35146 8.70316 4.35146C6.29997 4.35146 4.35181 6.29962 4.35181 8.70281C4.35181 11.106 6.29997 13.0542 8.70316 13.0542Z" fill="#F92F3A"/>
</mask>
<g mask="url(#mask0_564_1500)">
<rect id="Rectangle 3467716" x="7.46094" y="-1.24316" width="11.1892" height="24.8649" fill="#F93D3D"/>
<rect id="Rectangle 3467717" x="-1.24268" y="-1.24316" width="9.94595" height="24.8649" fill="#F93D3D"/>
</g>
</g>
</g>
</svg>
