<svg width="24" height="18" viewBox="0 0 24 18" fill="none" xmlns="http://www.w3.org/2000/svg">
<g id="Group 62796940">
<path id="Vector" d="M22.7585 11.2543V15.8278H1.24121V11.2543C1.24121 6.00999 5.49242 1.75879 10.7367 1.75879H13.2629C14.6636 1.75879 15.9935 2.06189 17.1898 2.60655C19.3529 3.58982 21.0821 5.36137 22.0105 7.55396C22.4921 8.69086 22.7585 9.94155 22.7585 11.2543Z" fill="#FFD11B"/>
<path id="Vector_2" d="M13.168 0.517578H10.8318C9.71268 0.517578 8.86343 1.52579 9.05356 2.6287L10.6845 12.0882C10.7273 12.3363 10.9425 12.5176 11.1943 12.5176H12.8056C13.0574 12.5176 13.2726 12.3363 13.3154 12.0882L14.9463 2.6287C15.1364 1.52579 14.2872 0.517578 13.168 0.517578Z" fill="#F39C11"/>
<path id="Vector_3" d="M19.7439 3.19696C20.2875 3.55928 20.4839 4.2649 20.2057 4.85596L17.7726 10.0262C17.5655 10.4664 17.0156 10.6194 16.6109 10.3496C16.328 10.161 16.1961 9.81356 16.2826 9.48475L17.7368 3.9587C17.9672 3.08332 18.9908 2.69487 19.7439 3.19696Z" fill="#F39C11"/>
<path id="Vector_4" d="M4.25592 3.19696C3.7124 3.55928 3.51601 4.2649 3.79413 4.85596L6.22723 10.0262C6.43433 10.4664 6.98426 10.6194 7.38901 10.3496C7.67189 10.161 7.80378 9.81356 7.71725 9.48475L6.26302 3.9587C6.03264 3.08332 5.00907 2.69487 4.25592 3.19696Z" fill="#F39C11"/>
<path id="Vector_5" d="M6.62585 12.1035H4.29107C3.97793 12.1035 3.72412 12.3573 3.72412 12.6705V14.5863H7.86205L7.16367 12.4912C7.0865 12.2597 6.86988 12.1035 6.62585 12.1035Z" fill="#F39C11"/>
<path id="Vector_6" d="M17.3739 12.1035H19.7087C20.0218 12.1035 20.2756 12.3573 20.2756 12.6705V14.5863H16.1377L16.8361 12.4912C16.9132 12.2597 17.1299 12.1035 17.3739 12.1035Z" fill="#F39C11"/>
<path id="Vector_7" d="M22.9655 17.4832H1.03448C0.463138 17.4832 0 17.0201 0 16.4487V15.2073C0 14.636 0.463138 14.1729 1.03448 14.1729H22.9655C23.5369 14.1729 24 14.636 24 15.2073V16.4487C24 17.0201 23.5369 17.4832 22.9655 17.4832Z" fill="#F39C11"/>
</g>
</svg>
