<svg width="30" height="30" viewBox="0 0 30 30" fill="none" xmlns="http://www.w3.org/2000/svg">
<rect width="30" height="30" rx="15" fill="white"/>
<path d="M18.4285 19C18.2571 19 18.1428 18.9428 18.0285 18.8285L15 15.8L11.9714 18.8285C11.7428 19.0571 11.4 19.0571 11.1714 18.8285C10.9429 18.6 10.9429 18.2572 11.1714 18.0286L14.2 15L11.1714 11.9714C10.9429 11.7429 10.9429 11.4 11.1714 11.1714C11.4 10.9429 11.7428 10.9429 11.9714 11.1714L15 14.2L18.0285 11.1714C18.2571 10.9429 18.6 10.9429 18.8285 11.1714C19.0571 11.4 19.0571 11.7429 18.8285 11.9714L15.8 15L18.8285 18.0286C19.0571 18.2572 19.0571 18.6 18.8285 18.8285C18.7143 18.9428 18.6 19 18.4285 19Z" fill="black" stroke="black" stroke-width="0.3"/>
</svg>
