<svg width="24" height="24" viewBox="0 0 24 24" fill="none" xmlns="http://www.w3.org/2000/svg">
<path id="Vector" d="M23.0823 9.30661C23.0002 8.89615 22.5897 8.64987 22.1792 8.64987C21.1941 8.81405 20.209 8.3215 19.7165 7.41849C19.2239 6.59756 19.306 5.44827 19.8807 4.70944C20.1269 4.38107 20.1269 3.88852 19.7986 3.64225C18.4851 2.41086 16.9253 1.50785 15.2014 1.01529C14.7909 0.933203 14.3805 1.09739 14.2163 1.50785C13.8058 2.41086 12.9028 2.98551 11.9177 2.98551C10.9326 2.98551 10.0296 2.41086 9.61913 1.50785C9.45495 1.09739 9.04449 0.85111 8.63402 1.01529C6.91009 1.50785 5.35034 2.41086 4.03686 3.72434C3.70849 3.97061 3.70849 4.46317 3.95477 4.79154C4.52941 5.61246 4.61151 6.67966 4.11895 7.50058C3.6264 8.3215 2.64129 8.81405 1.65619 8.73196C1.24573 8.64987 0.835266 8.97824 0.753174 9.3887C0.506897 10.2096 0.424805 11.1126 0.424805 12.0156C0.424805 12.9187 0.506897 13.8217 0.753174 14.7247C0.835266 15.1352 1.24573 15.3814 1.65619 15.2993C2.64129 15.1352 3.6264 15.6277 4.11895 16.5307C4.61151 17.3516 4.52941 18.5009 3.95477 19.2398C3.70849 19.5681 3.70849 20.0607 4.03686 20.307C5.35034 21.5383 6.99218 22.5234 8.71612 23.016C9.12658 23.0981 9.53704 22.9339 9.70122 22.5234C10.1117 21.6204 11.0147 21.0458 11.9998 21.0458C12.9849 21.0458 13.8879 21.6204 14.2984 22.5234C14.4626 22.8518 14.7088 23.016 15.0372 23.016C15.1193 23.016 15.2014 23.016 15.2835 23.016C17.0074 22.5234 18.6493 21.5383 19.9627 20.307C20.2911 19.9786 20.2911 19.5681 20.0448 19.2398C19.4702 18.4188 19.3881 17.3516 19.8807 16.5307C20.3732 15.7098 21.3583 15.2172 22.3434 15.2993C22.7539 15.3814 23.1643 15.0531 23.2464 14.6426C23.4927 13.7396 23.5748 12.8366 23.5748 11.9336C23.5748 11.0305 23.3285 10.2096 23.0823 9.30661ZM11.9177 15.2993C10.1117 15.2993 8.63402 13.8217 8.63402 12.0156C8.63402 10.2096 10.1117 8.73196 11.9177 8.73196C13.7237 8.73196 15.2014 10.2096 15.2014 12.0156C15.2014 13.8217 13.7237 15.2993 11.9177 15.2993Z" fill="#804DEC"/>
</svg>
