<svg width="24" height="24" viewBox="0 0 24 24" fill="none" xmlns="http://www.w3.org/2000/svg">
<g id="128618188116313447304152" clip-path="url(#clip0_564_1430)">
<g id="Group 62796937">
<path id="Vector" d="M17.1903 3.69348L6.74017 0.0324606C6.64807 0.00127692 6.54992 -0.00760715 6.45375 0.00653658C6.35759 0.0206803 6.26615 0.0574451 6.18695 0.113817C6.1073 0.16968 6.04242 0.244006 5.99775 0.330435C5.95313 0.416863 5.9301 0.512819 5.93067 0.610088V7.80195C5.93067 7.96377 5.99495 8.119 6.10937 8.23342C6.2238 8.34785 6.37903 8.41212 6.54084 8.41212V23.6664H16.8242V12.5857C16.8774 12.6 16.9319 12.6082 16.9869 12.6101C17.1488 12.6101 17.3039 12.5458 17.4184 12.4314C17.5328 12.317 17.5971 12.1617 17.5971 11.9999V4.2711C17.5976 4.14452 17.5587 4.02094 17.4858 3.91741C17.4129 3.81393 17.3097 3.73566 17.1903 3.69348Z" fill="#0099D6"/>
<path id="Vector_2" d="M10.2673 7H2.81915C2.48217 7 2.20898 7.27319 2.20898 7.61017V23.198C2.20898 23.5349 2.48217 23.8081 2.81915 23.8081H10.2673C10.6043 23.8081 10.8775 23.5349 10.8775 23.198V7.61017C10.8775 7.27319 10.6043 7 10.2673 7Z" fill="#97CCEF"/>
<path id="Vector_3" d="M21.181 11H14.0623C13.7253 11 13.4521 11.2732 13.4521 11.6102V23C13.4521 23.337 13.7253 23.6102 14.0623 23.6102H21.181C21.518 23.6102 21.7911 23.337 21.7911 23V11.6102C21.7911 11.2732 21.518 11 21.181 11Z" fill="#97CCEF"/>
<path id="Vector_4" d="M23.3898 23.9205H0.610169C0.448344 23.9205 0.293142 23.8563 0.178715 23.7418C0.0642875 23.6274 0 23.4722 0 23.3104C0 23.1485 0.0642875 22.9933 0.178715 22.8789C0.293142 22.7645 0.448344 22.7002 0.610169 22.7002H23.3898C23.5516 22.7002 23.7069 22.7645 23.8213 22.8789C23.9357 22.9933 24 23.1485 24 23.3104C24 23.4722 23.9357 23.6274 23.8213 23.7418C23.7069 23.8563 23.5516 23.9205 23.3898 23.9205Z" fill="#275996"/>
</g>
</g>
<defs>
<clipPath id="clip0_564_1430">
<rect width="24" height="24" fill="white"/>
</clipPath>
</defs>
</svg>
